<svg width="41" height="26" viewBox="0 0 41 26" fill="none" xmlns="http://www.w3.org/2000/svg">
<path d="M0 4.33333C0 1.94323 2.04288 0 4.55556 0H22.7778C25.2905 0 27.3333 1.94323 27.3333 4.33333V21.6667C27.3333 24.0568 25.2905 26 22.7778 26H4.55556C2.04288 26 0 24.0568 0 21.6667V4.33333ZM39.797 2.42396C40.5373 2.80313 41 3.53438 41 4.33333V21.6667C41 22.4656 40.5373 23.1969 39.797 23.576C39.0568 23.9552 38.1599 23.9146 37.4552 23.4677L30.6219 19.1344L29.6111 18.4911V17.3333V8.66667V7.50885L30.6219 6.86562L37.4552 2.53229C38.1528 2.09219 39.0496 2.04479 39.797 2.42396Z" fill="#3500D4"/>
</svg>
