<svg width="77" height="61" viewBox="0 0 77 61" fill="none" xmlns="http://www.w3.org/2000/svg">
<path d="M25.4047 41.91C39.0778 41.91 50.1567 32.5279 50.1567 20.955C50.1567 9.38212 39.0778 0 25.4047 0C11.7316 0 0.65267 9.38212 0.65267 20.955C0.65267 25.5508 2.40197 29.8013 5.36507 33.2661C4.94857 34.3853 4.32977 35.3735 3.67527 36.2069C3.10407 36.9451 2.52097 37.5166 2.09257 37.9095C1.87837 38.1 1.69987 38.2548 1.58087 38.35C1.52137 38.3977 1.47377 38.4334 1.44997 38.4453L1.42617 38.4691C0.77167 38.9572 0.48607 39.8145 0.74787 40.5884C1.00967 41.3623 1.73557 41.91 2.55667 41.91C5.15087 41.91 7.76887 41.2432 9.94657 40.4217C11.0414 40.005 12.0648 39.5407 12.9573 39.0644C16.6106 40.8742 20.8589 41.91 25.4047 41.91ZM53.9647 20.955C53.9647 34.3257 42.1718 44.3984 28.2012 45.6009C31.0929 54.4592 40.6843 60.96 52.0607 60.96C56.6065 60.96 60.8548 59.9242 64.52 58.1144C65.4125 58.5907 66.424 59.055 67.5188 59.4717C69.6965 60.2932 72.3145 60.96 74.9087 60.96C75.7298 60.96 76.4676 60.4242 76.7175 59.6384C76.9674 58.8526 76.6937 57.9953 76.0273 57.5072L76.0035 57.4834C75.9797 57.4596 75.9321 57.4357 75.8726 57.3881C75.7536 57.2929 75.5751 57.15 75.3609 56.9476C74.9325 56.5547 74.3494 55.9832 73.7782 55.245C73.1237 54.4116 72.5049 53.4114 72.0884 52.3042C75.0515 48.8513 76.8008 44.6008 76.8008 39.9931C76.8008 28.9441 66.6977 19.8834 53.8814 19.0976C53.929 19.7048 53.9528 20.324 53.9528 20.9431L53.9647 20.955Z" fill="white"/>
</svg>
