<svg width="23" height="23" viewBox="0 0 23 23" fill="none" xmlns="http://www.w3.org/2000/svg">
<g clip-path="url(#clip0_79_978)">
<path d="M20.8438 11.5C20.8438 9.02188 19.8593 6.64526 18.107 4.89297C16.3547 3.14068 13.9781 2.15625 11.5 2.15625C9.02188 2.15625 6.64526 3.14068 4.89297 4.89297C3.14068 6.64526 2.15625 9.02188 2.15625 11.5C2.15625 13.9781 3.14068 16.3547 4.89297 18.107C6.64526 19.8593 9.02188 20.8438 11.5 20.8438C13.9781 20.8438 16.3547 19.8593 18.107 18.107C19.8593 16.3547 20.8438 13.9781 20.8438 11.5ZM0 11.5C0 8.45001 1.2116 5.52494 3.36827 3.36827C5.52494 1.2116 8.45001 0 11.5 0C14.55 0 17.4751 1.2116 19.6317 3.36827C21.7884 5.52494 23 8.45001 23 11.5C23 14.55 21.7884 17.4751 19.6317 19.6317C17.4751 21.7884 14.55 23 11.5 23C8.45001 23 5.52494 21.7884 3.36827 19.6317C1.2116 17.4751 0 14.55 0 11.5ZM7.97813 14.2896C8.66094 15.0264 9.82891 15.8125 11.5 15.8125C13.1711 15.8125 14.3391 15.0264 15.0219 14.2896C15.4262 13.8539 16.109 13.8225 16.5447 14.2268C16.9805 14.6311 17.0119 15.3139 16.6076 15.7496C15.6193 16.8188 13.9123 17.9688 11.5045 17.9688C9.09668 17.9688 7.38516 16.8232 6.40137 15.7496C5.99707 15.3139 6.02402 14.6311 6.46426 14.2268C6.90449 13.8225 7.58281 13.8494 7.98711 14.2896H7.97813ZM6.48672 9.34375C6.48672 8.9625 6.63817 8.59687 6.90775 8.32728C7.17734 8.0577 7.54297 7.90625 7.92422 7.90625C8.30547 7.90625 8.6711 8.0577 8.94069 8.32728C9.21027 8.59687 9.36172 8.9625 9.36172 9.34375C9.36172 9.725 9.21027 10.0906 8.94069 10.3602C8.6711 10.6298 8.30547 10.7812 7.92422 10.7812C7.54297 10.7812 7.17734 10.6298 6.90775 10.3602C6.63817 10.0906 6.48672 9.725 6.48672 9.34375ZM15.1117 7.90625C15.493 7.90625 15.8586 8.0577 16.1282 8.32728C16.3978 8.59687 16.5492 8.9625 16.5492 9.34375C16.5492 9.725 16.3978 10.0906 16.1282 10.3602C15.8586 10.6298 15.493 10.7812 15.1117 10.7812C14.7305 10.7812 14.3648 10.6298 14.0953 10.3602C13.8257 10.0906 13.6742 9.725 13.6742 9.34375C13.6742 8.9625 13.8257 8.59687 14.0953 8.32728C14.3648 8.0577 14.7305 7.90625 15.1117 7.90625Z" fill="current"/>
</g>
<defs>
<clipPath id="clip0_79_978">
<rect width="23" height="23" fill="current"/>
</clipPath>
</defs>
</svg>
