<svg width="18" height="19" viewBox="0 0 18 19" fill="none" xmlns="http://www.w3.org/2000/svg">
<path d="M0.343828 16.8848C-0.114609 17.3687 -0.114609 18.1531 0.343828 18.6371C0.802266 19.121 1.54556 19.121 2.004 18.6371L0.343828 16.8848ZM9.83005 10.3762C10.2885 9.89225 10.2885 9.10779 9.83005 8.62387C9.3716 8.13995 8.62843 8.13995 8.16998 8.62387L9.83005 10.3762ZM8.16998 8.62387C7.71153 9.10779 7.71153 9.89225 8.16998 10.3762C8.62843 10.8601 9.3716 10.8601 9.83005 10.3762L8.16998 8.62387ZM17.6562 2.11533C18.1146 1.63142 18.1146 0.846836 17.6562 0.36293C17.1977 -0.120977 16.4545 -0.120977 15.9961 0.36293L17.6562 2.11533ZM9.83005 8.62387C9.3716 8.13995 8.62843 8.13995 8.16998 8.62387C7.71153 9.10779 7.71153 9.89225 8.16998 10.3762L9.83005 8.62387ZM15.9961 18.6371C16.4545 19.121 17.1977 19.121 17.6562 18.6371C18.1146 18.1531 18.1146 17.3687 17.6562 16.8848L15.9961 18.6371ZM8.16998 10.3762C8.62843 10.8601 9.3716 10.8601 9.83005 10.3762C10.2885 9.89225 10.2885 9.10779 9.83005 8.62387L8.16998 10.3762ZM2.004 0.36293C1.54556 -0.120977 0.802266 -0.120977 0.343828 0.36293C-0.114609 0.846836 -0.114609 1.63142 0.343828 2.11533L2.004 0.36293ZM2.004 18.6371L9.83005 10.3762L8.16998 8.62387L0.343828 16.8848L2.004 18.6371ZM9.83005 10.3762L17.6562 2.11533L15.9961 0.36293L8.16998 8.62387L9.83005 10.3762ZM8.16998 10.3762L15.9961 18.6371L17.6562 16.8848L9.83005 8.62387L8.16998 10.3762ZM9.83005 8.62387L2.004 0.36293L0.343828 2.11533L8.16998 10.3762L9.83005 8.62387Z" fill="current"/>
</svg>
