<svg width="20" height="23" viewBox="0 0 20 23" fill="none" xmlns="http://www.w3.org/2000/svg">
<g clip-path="url(#clip0_79_976)">
<path d="M16.2589 3.7646C15.1696 2.66851 13.4018 2.66851 12.3125 3.7646L4.09821 12.0302C2.21875 13.9214 2.21875 16.9851 4.09821 18.8763C5.97768 20.7675 9.02232 20.7675 10.9018 18.8763L17.6875 12.0482C18.1741 11.5585 18.9688 11.5585 19.4554 12.0482C19.942 12.5378 19.942 13.3374 19.4554 13.8271L12.6696 20.6552C9.8125 23.5302 5.1875 23.5302 2.33036 20.6552C-0.526786 17.7802 -0.526786 13.1263 2.33036 10.2513L10.5446 1.98569C12.6116 -0.0941894 15.9598 -0.0941894 18.0268 1.98569C20.0938 4.06558 20.0938 7.43472 18.0268 9.5146L10.1696 17.4208C8.89286 18.7056 6.82143 18.7056 5.54464 17.4208C4.26786 16.1361 4.26786 14.0517 5.54464 12.7669L11.9732 6.29819C12.4598 5.80854 13.2545 5.80854 13.7411 6.29819C14.2277 6.78784 14.2277 7.58745 13.7411 8.0771L7.3125 14.5458C7.01339 14.8468 7.01339 15.341 7.3125 15.6419C7.61161 15.9429 8.10268 15.9429 8.40179 15.6419L16.2589 7.73569C17.3482 6.6396 17.3482 4.86069 16.2589 3.7646Z" fill="current"/>
</g>
<defs>
<clipPath id="clip0_79_976">
<rect width="20" height="23" fill="current"/>
</clipPath>
</defs>
</svg>
