<svg width="58" height="50" viewBox="0 0 58 50" fill="none" xmlns="http://www.w3.org/2000/svg">
<path d="M7.27281 0.432617C3.33466 0.432617 0.132812 3.57168 0.132812 7.43262V42.4326C0.132812 46.2936 3.33466 49.4326 7.27281 49.4326H50.1128C54.051 49.4326 57.2528 46.2936 57.2528 42.4326V7.43262C57.2528 3.57168 54.051 0.432617 50.1128 0.432617H7.27281ZM19.6563 16.0732C20.7049 15.0451 22.4007 15.0451 23.4382 16.0732L28.6817 21.2139L33.9251 16.0732C34.9738 15.0451 36.6695 15.0451 37.7071 16.0732C38.7446 17.1014 38.7558 18.7639 37.7071 19.7811L32.4636 24.9217L37.7071 30.0623C38.7558 31.0904 38.7558 32.7529 37.7071 33.7701C36.6584 34.7873 34.9626 34.7982 33.9251 33.7701L28.6817 28.6295L23.4382 33.7701C22.3895 34.7982 20.6938 34.7982 19.6563 33.7701C18.6187 32.742 18.6076 31.0795 19.6563 30.0623L24.8997 24.9217L19.6563 19.7811C18.6076 18.7529 18.6076 17.0904 19.6563 16.0732Z" fill="current"/>
</svg>
