<svg width="24" height="25" viewBox="0 0 24 25" fill="none" xmlns="http://www.w3.org/2000/svg">
<path d="M0.886709 22.0589C0.290368 22.6664 0.290368 23.6511 0.886709 24.2586C1.48305 24.8661 2.44993 24.8661 3.04628 24.2586L0.886709 22.0589ZM13.2265 13.8886C13.8229 13.2811 13.8229 12.2964 13.2265 11.6889C12.6302 11.0815 11.6634 11.0815 11.0671 11.6889L13.2265 13.8886ZM11.0671 11.6889C10.4707 12.2964 10.4707 13.2811 11.0671 13.8886C11.6634 14.4961 12.6302 14.4961 13.2265 13.8886L11.0671 11.6889ZM23.4068 3.51868C24.0032 2.91123 24.0032 1.92632 23.4068 1.31887C22.8105 0.711418 21.8437 0.711418 21.2474 1.31887L23.4068 3.51868ZM13.2265 11.6889C12.6302 11.0815 11.6634 11.0815 11.0671 11.6889C10.4707 12.2964 10.4707 13.2811 11.0671 13.8886L13.2265 11.6889ZM21.2474 24.2586C21.8437 24.8661 22.8105 24.8661 23.4068 24.2586C24.0032 23.6511 24.0032 22.6664 23.4068 22.0589L21.2474 24.2586ZM11.0671 13.8886C11.6634 14.4961 12.6302 14.4961 13.2265 13.8886C13.8229 13.2811 13.8229 12.2964 13.2265 11.6889L11.0671 13.8886ZM3.04628 1.31887C2.44993 0.711418 1.48305 0.711418 0.886709 1.31887C0.290368 1.92632 0.290368 2.91123 0.886709 3.51868L3.04628 1.31887ZM3.04628 24.2586L13.2265 13.8886L11.0671 11.6889L0.886709 22.0589L3.04628 24.2586ZM13.2265 13.8886L23.4068 3.51868L21.2474 1.31887L11.0671 11.6889L13.2265 13.8886ZM11.0671 13.8886L21.2474 24.2586L23.4068 22.0589L13.2265 11.6889L11.0671 13.8886ZM13.2265 11.6889L3.04628 1.31887L0.886709 3.51868L11.0671 13.8886L13.2265 11.6889Z" fill="current"/>
</svg>
