<svg width="56" height="56" viewBox="0 0 56 56" fill="none" xmlns="http://www.w3.org/2000/svg">
<path d="M52.5 3L38.75 16.75L52.5 3ZM38.75 3L52.5 16.75L38.75 3ZM45.625 52.5C22.0839 52.5 3 33.4161 3 9.875C3 8.81289 3.03886 7.75986 3.1152 6.71726C3.20281 5.5207 3.24662 4.92244 3.56018 4.37783C3.81989 3.92678 4.28012 3.49902 4.74894 3.27294C5.31498 3 5.97517 3 7.29553 3H15.0431C16.1535 3 16.7086 3 17.1846 3.18274C17.6049 3.34416 17.9793 3.60635 18.2747 3.94627C18.609 4.33108 18.7987 4.85284 19.1782 5.89633L22.385 14.7151C22.8264 15.9292 23.0472 16.5362 23.0098 17.1122C22.9768 17.62 22.8033 18.1087 22.5091 18.5239C22.1754 18.9948 21.6215 19.3271 20.5137 19.9918L16.75 22.25C20.0552 29.5345 25.9628 35.4497 33.25 38.75L35.5083 34.9864C36.173 33.8784 36.5052 33.3245 36.976 32.9909C37.3912 32.6967 37.8799 32.5232 38.3878 32.4902C38.9637 32.4528 39.5709 32.6736 40.785 33.115L49.6037 36.3218C50.647 36.7013 51.169 36.891 51.5537 37.2254C51.8936 37.5207 52.156 37.895 52.3171 38.3155C52.5 38.7912 52.5 39.3465 52.5 40.4569V48.2045C52.5 49.5248 52.5 50.1851 52.2269 50.751C52.0009 51.2199 51.5733 51.6802 51.1223 51.9398C50.5775 52.2533 49.9794 52.297 48.7828 52.3848C47.74 52.4612 46.687 52.5 45.625 52.5Z" fill="#FF0041"/>
<path d="M52.5 3L38.75 16.75M38.75 3L52.5 16.75M45.625 52.5C22.0839 52.5 3 33.4161 3 9.875C3 8.81289 3.03886 7.75986 3.1152 6.71726C3.20281 5.5207 3.24662 4.92244 3.56018 4.37783C3.81989 3.92678 4.28012 3.49902 4.74894 3.27294C5.31498 3 5.97517 3 7.29553 3H15.0431C16.1535 3 16.7086 3 17.1846 3.18274C17.6049 3.34416 17.9793 3.60635 18.2747 3.94627C18.609 4.33108 18.7988 4.85284 19.1782 5.89633L22.385 14.7151C22.8264 15.9292 23.0472 16.5362 23.0098 17.1122C22.9768 17.62 22.8033 18.1087 22.5091 18.5239C22.1754 18.9948 21.6215 19.3271 20.5137 19.9918L16.75 22.25C20.0552 29.5345 25.9628 35.4497 33.25 38.75L35.5083 34.9864C36.173 33.8784 36.5052 33.3245 36.976 32.9909C37.3912 32.6967 37.8799 32.5232 38.3878 32.4902C38.9637 32.4528 39.5709 32.6736 40.785 33.115L49.6037 36.3218C50.647 36.7013 51.169 36.891 51.5537 37.2254C51.8936 37.5207 52.156 37.895 52.3171 38.3155C52.5 38.7912 52.5 39.3465 52.5 40.4569V48.2045C52.5 49.5248 52.5 50.185 52.2269 50.751C52.0009 51.2199 51.5733 51.6802 51.1223 51.9398C50.5775 52.2533 49.9794 52.297 48.7828 52.3848C47.74 52.4612 46.687 52.5 45.625 52.5Z" stroke="#FF0041" stroke-width="5.5" stroke-linecap="round" stroke-linejoin="round"/>
</svg>
