<svg width="41" height="41" viewBox="0 0 41 41" fill="none" xmlns="http://www.w3.org/2000/svg">
<g clip-path="url(#clip0_94_435)">
<path d="M20.499 6.40625C12.0027 6.40625 4.9959 12.7645 3.9709 20.9805C4.72363 20.6762 5.54043 20.5 6.40527 20.5C8.52734 20.5 10.249 22.2217 10.249 24.3438V34.5938C10.249 36.7158 8.52734 38.4375 6.40527 38.4375C2.86582 38.4375 -0.000976562 35.5707 -0.000976562 32.0312V30.75V26.9062V23.0625C-0.000976562 11.7395 9.17598 2.5625 20.499 2.5625C31.8221 2.5625 40.999 11.7395 40.999 23.0625V26.9062V30.75V32.0312C40.999 35.5707 38.1322 38.4375 34.5928 38.4375C32.4707 38.4375 30.749 36.7158 30.749 34.5938V24.3438C30.749 22.2217 32.4707 20.5 34.5928 20.5C35.4576 20.5 36.2744 20.6682 37.0271 20.9805C36.0021 12.7645 28.9953 6.40625 20.499 6.40625Z" fill="#3500D4"/>
</g>
<defs>
<clipPath id="clip0_94_435">
<rect width="41" height="41" fill="white"/>
</clipPath>
</defs>
</svg>
