<svg width="42" height="60" viewBox="0 0 42 60" fill="none" xmlns="http://www.w3.org/2000/svg">
<path d="M20.5333 0.759766C14.35 0.759766 9.33333 5.73164 9.33333 11.8598V30.3598C9.33333 36.4879 14.35 41.4598 20.5333 41.4598C26.7167 41.4598 31.7333 36.4879 31.7333 30.3598V11.8598C31.7333 5.73164 26.7167 0.759766 20.5333 0.759766ZM5.6 25.7348C5.6 24.197 4.35167 22.9598 2.8 22.9598C1.24833 22.9598 0 24.197 0 25.7348V30.3598C0 40.662 7.72333 49.172 17.7333 50.5248V54.4098H12.1333C10.5817 54.4098 9.33333 55.647 9.33333 57.1848C9.33333 58.7226 10.5817 59.9598 12.1333 59.9598H20.5333H28.9333C30.485 59.9598 31.7333 58.7226 31.7333 57.1848C31.7333 55.647 30.485 54.4098 28.9333 54.4098H23.3333V50.5248C33.3433 49.172 41.0667 40.662 41.0667 30.3598V25.7348C41.0667 24.197 39.8183 22.9598 38.2667 22.9598C36.715 22.9598 35.4667 24.197 35.4667 25.7348V30.3598C35.4667 38.5345 28.7817 45.1598 20.5333 45.1598C12.285 45.1598 5.6 38.5345 5.6 30.3598V25.7348Z" fill="white"/>
</svg>
