<svg width="33" height="48" viewBox="0 0 33 48" fill="none" xmlns="http://www.w3.org/2000/svg">
<path d="M16.0259 0C11.1999 0 7.28451 3.9528 7.28451 8.82484V23.5329C7.28451 28.405 11.1999 32.3578 16.0259 32.3578C20.8519 32.3578 24.7674 28.405 24.7674 23.5329V8.82484C24.7674 3.9528 20.8519 0 16.0259 0ZM4.37071 19.8559C4.37071 18.6333 3.3964 17.6497 2.18535 17.6497C0.974304 17.6497 0 18.6333 0 19.8559V23.5329C0 31.7235 6.02794 38.4892 13.8406 39.5647V42.6534H9.46987C8.25882 42.6534 7.28451 43.637 7.28451 44.8596C7.28451 46.0822 8.25882 47.0658 9.46987 47.0658H16.0259H22.582C23.793 47.0658 24.7674 46.0822 24.7674 44.8596C24.7674 43.637 23.793 42.6534 22.582 42.6534H18.2113V39.5647C26.0239 38.4892 32.0519 31.7235 32.0519 23.5329V19.8559C32.0519 18.6333 31.0776 17.6497 29.8665 17.6497C28.6555 17.6497 27.6812 18.6333 27.6812 19.8559V23.5329C27.6812 30.032 22.4636 35.2994 16.0259 35.2994C9.58824 35.2994 4.37071 30.032 4.37071 23.5329V19.8559Z" fill="#3500D4"/>
</svg>
