<svg width="69" height="69" viewBox="0 0 69 69" fill="none" xmlns="http://www.w3.org/2000/svg">
<mask id="path-1-inside-1_204_196" fill="current">
<path d="M17.8085 27.6468L23.3338 22.1214C25.7158 19.7394 26.6268 16.2462 25.659 13.0197C24.8677 10.3819 24.3106 7.64264 24.012 4.82636C23.7184 2.0583 21.3041 0 18.5205 0H5.60861C2.28832 0 -0.26951 2.86767 0.0227698 6.17508C2.96688 39.493 29.507 66.0331 62.8249 68.9772C66.1323 69.2695 69 66.721 69 63.4009V51.89C69 47.6875 66.9415 45.2816 64.1736 44.9882C61.3573 44.6895 58.618 44.1325 55.9802 43.3412C52.7536 42.3734 49.2606 43.2844 46.8784 45.6664L41.3531 51.1917"/>
</mask>
<path d="M17.8085 27.6468L23.3338 22.1214C25.7158 19.7394 26.6268 16.2462 25.659 13.0197C24.8677 10.3819 24.3106 7.64264 24.012 4.82636C23.7184 2.0583 21.3041 0 18.5205 0H5.60861C2.28832 0 -0.26951 2.86767 0.0227698 6.17508C2.96688 39.493 29.507 66.0331 62.8249 68.9772C66.1323 69.2695 69 66.721 69 63.4009V51.89C69 47.6875 66.9415 45.2816 64.1736 44.9882C61.3573 44.6895 58.618 44.1325 55.9802 43.3412C52.7536 42.3734 49.2606 43.2844 46.8784 45.6664L41.3531 51.1917" fill="current"/>
<path d="M15.0932 24.9316C13.5936 26.4312 13.5936 28.8626 15.0933 30.3622C16.5929 31.8618 19.0243 31.8617 20.5238 30.3621L15.0932 24.9316ZM23.3338 22.1214L20.6185 19.4061L20.6185 19.4061L23.3338 22.1214ZM25.659 13.0197L21.9809 14.123L21.9809 14.1231L25.659 13.0197ZM24.012 4.82636L27.8306 4.42144L27.8306 4.42135L24.012 4.82636ZM0.0227698 6.17508L3.84787 5.83707L3.84786 5.83705L0.0227698 6.17508ZM62.8249 68.9772L63.1629 65.1521H63.1629L62.8249 68.9772ZM64.1736 44.9882L63.7687 48.8068L63.7688 48.8068L64.1736 44.9882ZM55.9802 43.3412L57.0835 39.6631L57.0835 39.6631L55.9802 43.3412ZM46.8784 45.6664L44.1632 42.951L44.1631 42.9511L46.8784 45.6664ZM38.6378 48.4764C37.1382 49.976 37.1382 52.4073 38.6378 53.9069C40.1375 55.4066 42.5688 55.4066 44.0684 53.9069L38.6378 48.4764ZM20.5238 30.3621L26.0491 24.8366L20.6185 19.4061L15.0932 24.9316L20.5238 30.3621ZM26.0491 24.8366C29.4108 21.4749 30.7185 16.5217 29.337 11.9164L21.9809 14.1231C22.5351 15.9707 22.0207 18.0038 20.6185 19.4061L26.0491 24.8366ZM29.3371 11.9164C28.6136 9.50458 28.1039 6.99903 27.8306 4.42144L20.1934 5.23128C20.5173 8.28626 21.1218 11.2593 21.9809 14.123L29.3371 11.9164ZM27.8306 4.42135C27.3183 -0.408988 23.1563 -3.84 18.5205 -3.84V3.84C19.4519 3.84 20.1185 4.52558 20.1934 5.23137L27.8306 4.42135ZM18.5205 -3.84H5.60861V3.84H18.5205V-3.84ZM5.60861 -3.84C-0.027775 -3.84 -4.28755 1.02238 -3.80232 6.5131L3.84786 5.83705C3.74853 4.71296 4.60441 3.84 5.60861 3.84V-3.84ZM-3.80233 6.51308C-0.694411 41.6848 27.3152 69.6944 62.4869 72.8023L63.1629 65.1521C31.6988 62.3718 6.62816 37.3012 3.84787 5.83707L-3.80233 6.51308ZM62.4869 72.8023C67.9688 73.2868 72.84 69.0458 72.84 63.4009H65.16C65.16 64.3962 64.2958 65.2522 63.1629 65.1521L62.4869 72.8023ZM72.84 63.4009V51.89H65.16V63.4009H72.84ZM72.84 51.89C72.84 49.1851 72.1771 46.6704 70.712 44.6896C69.2087 42.6573 67.027 41.4291 64.5784 41.1696L63.7688 48.8068C64.0881 48.8406 64.3196 48.9621 64.5375 49.2567C64.7936 49.6029 65.16 50.3924 65.16 51.89H72.84ZM64.5785 41.1696C62.0009 40.8963 59.4954 40.3866 57.0835 39.6631L54.8769 47.0193C57.7407 47.8783 60.7137 48.4828 63.7687 48.8068L64.5785 41.1696ZM57.0835 39.6631C52.478 38.2817 47.5251 39.5894 44.1632 42.951L49.5936 48.3818C50.9961 46.9794 53.0291 46.465 54.877 47.0193L57.0835 39.6631ZM44.1631 42.9511L38.6378 48.4764L44.0684 53.9069L49.5937 48.3817L44.1631 42.9511Z" fill="current" mask="url(#path-1-inside-1_204_196)"/>
<mask id="path-3-inside-2_204_196" fill="current">
<path d="M11 0C11 4.89861 11.6073 9.65532 12.7506 14.1991C19.0839 39.3675 41.866 58 69 58"/>
</mask>
<path d="M14.84 0C14.84 -2.12077 13.1208 -3.84 11 -3.84C8.87923 -3.84 7.16 -2.12077 7.16 0H14.84ZM12.7506 14.1991L9.02666 15.1361L9.02668 15.1362L12.7506 14.1991ZM69 61.84C71.1208 61.84 72.84 60.1208 72.84 58C72.84 55.8792 71.1208 54.16 69 54.16V61.84ZM7.16 0C7.16 5.2171 7.80689 10.2885 9.02666 15.1361L16.4745 13.2621C15.4077 9.02218 14.84 4.58011 14.84 0H7.16ZM9.02668 15.1362C15.7792 41.9703 40.0644 61.84 69 61.84V54.16C43.6676 54.16 22.3887 36.7646 16.4745 13.262L9.02668 15.1362Z" fill="current" mask="url(#path-3-inside-2_204_196)"/>
</svg>
