<svg width="159" height="159" viewBox="0 0 159 159" fill="none" xmlns="http://www.w3.org/2000/svg">
<g clip-path="url(#clip0_53_7371)">
<path d="M154.001 51.7371C154.994 54.4389 154.156 57.4512 152.013 59.3766L138.566 71.6121C138.908 74.1896 139.094 76.8293 139.094 79.5C139.094 82.1707 138.908 84.8103 138.566 87.3879L152.013 99.6234C154.156 101.549 154.994 104.561 154.001 107.263C152.634 110.958 150.988 114.499 149.094 117.915L147.634 120.43C145.585 123.846 143.287 127.076 140.771 130.119C138.939 132.355 135.896 133.1 133.163 132.231L115.865 126.734C111.704 129.933 107.108 132.604 102.201 134.622L98.3195 152.354C97.6984 155.18 95.5246 157.416 92.6676 157.882C88.382 158.596 83.9723 158.969 79.4693 158.969C74.9664 158.969 70.5566 158.596 66.2711 157.882C63.4141 157.416 61.2402 155.18 60.6191 152.354L56.7373 134.622C51.8307 132.604 47.2346 129.933 43.0732 126.734L25.8068 132.262C23.074 133.131 20.0307 132.355 18.1984 130.15C15.683 127.107 13.385 123.877 11.3354 120.461L9.87579 117.946C7.98145 114.53 6.33555 110.989 4.96915 107.294C3.9754 104.592 4.81387 101.58 6.95665 99.6545L20.4033 87.4189C20.0617 84.8103 19.8754 82.1707 19.8754 79.5C19.8754 76.8293 20.0617 74.1896 20.4033 71.6121L6.95665 59.3766C4.81387 57.4512 3.9754 54.4389 4.96915 51.7371C6.33555 48.0416 7.98145 44.5014 9.87579 41.0854L11.3354 38.5699C13.385 35.1539 15.683 31.9242 18.1984 28.8809C20.0307 26.6449 23.074 25.8996 25.8068 26.7691L43.1043 32.2658C47.2656 29.0672 51.8617 26.3965 56.7684 24.3779L60.6502 6.6457C61.2713 3.81973 63.4451 1.58379 66.3021 1.11797C70.5877 0.372656 74.9975 0 79.5004 0C84.0033 0 88.4131 0.372656 92.6986 1.08691C95.5557 1.55273 97.7295 3.78867 98.3506 6.61465L102.232 24.3469C107.139 26.3654 111.735 29.0361 115.896 32.2348L133.194 26.7381C135.927 25.8686 138.97 26.6449 140.802 28.8498C143.318 31.8932 145.616 35.1228 147.665 38.5389L149.125 41.0543C151.019 44.4703 152.665 48.0105 154.032 51.7061L154.001 51.7371ZM79.5004 104.344C86.0894 104.344 92.4085 101.726 97.0676 97.0672C101.727 92.4081 104.344 86.089 104.344 79.5C104.344 72.911 101.727 66.5919 97.0676 61.9328C92.4085 57.2737 86.0894 54.6562 79.5004 54.6562C72.9114 54.6562 66.5923 57.2737 61.9332 61.9328C57.2741 66.5919 54.6566 72.911 54.6566 79.5C54.6566 86.089 57.2741 92.4081 61.9332 97.0672C66.5923 101.726 72.9114 104.344 79.5004 104.344Z" fill="url(#paint0_linear_53_7371)"/>
</g>
<defs>
<linearGradient id="paint0_linear_53_7371" x1="24.5005" y1="30.0001" x2="138" y2="121.5" gradientUnits="userSpaceOnUse">
<stop stop-color="#1A0061"/>
<stop offset="0.538542" stop-color="#3500D4"/>
<stop offset="1" stop-color="white"/>
</linearGradient>
<clipPath id="clip0_53_7371">
<rect width="159" height="159" fill="white"/>
</clipPath>
</defs>
</svg>
