<svg width="50" height="52" viewBox="0 0 50 52" fill="none" xmlns="http://www.w3.org/2000/svg">
<path d="M49.8614 16.9236C50.193 17.8074 49.9132 18.7927 49.1983 19.4225L44.7119 23.4249C44.8259 24.268 44.8881 25.1315 44.8881 26.0051C44.8881 26.8787 44.8259 27.7421 44.7119 28.5853L49.1983 32.5876C49.9132 33.2174 50.193 34.2028 49.8614 35.0865C49.4055 36.2954 48.8564 37.4534 48.2243 38.5708L47.7374 39.3936C47.0535 40.511 46.2868 41.5675 45.4476 42.563C44.8363 43.2944 43.8209 43.5382 42.9091 43.2538L37.138 41.4558C35.7496 42.5021 34.2162 43.3757 32.5791 44.0359L31.284 49.8363C31.0768 50.7607 30.3515 51.4921 29.3983 51.6445C27.9684 51.8781 26.4972 52 24.9948 52C23.4925 52 22.0212 51.8781 20.5914 51.6445C19.6381 51.4921 18.9129 50.7607 18.7056 49.8363L17.4105 44.0359C15.7735 43.3757 14.24 42.5021 12.8516 41.4558L7.09089 43.2639C6.17911 43.5484 5.16373 43.2944 4.55242 42.5732C3.71318 41.5777 2.94646 40.5212 2.26263 39.4038L1.77566 38.581C1.14363 37.4636 0.594493 36.3055 0.138606 35.0967C-0.192948 34.2129 0.0868006 33.2276 0.801715 32.5978L5.28806 28.5954C5.17409 27.7421 5.11192 26.8787 5.11192 26.0051C5.11192 25.1315 5.17409 24.268 5.28806 23.4249L0.801715 19.4225C0.0868006 18.7927 -0.192948 17.8074 0.138606 16.9236C0.594493 15.7148 1.14363 14.5568 1.77566 13.4393L2.26263 12.6165C2.94646 11.4991 3.71318 10.4427 4.55242 9.44716C5.16373 8.71576 6.17911 8.47197 7.09089 8.7564L12.862 10.5544C14.2504 9.50811 15.7838 8.6345 17.4209 7.97421L18.716 2.17386C18.9232 1.24946 19.6485 0.51807 20.6017 0.365696C22.0316 0.121899 23.5028 0 25.0052 0C26.5075 0 27.9788 0.121899 29.4086 0.355538C30.3619 0.507912 31.0871 1.2393 31.2944 2.1637L32.5895 7.96406C34.2265 8.62434 35.76 9.49795 37.1484 10.5442L42.9195 8.74624C43.8313 8.46181 44.8466 8.71576 45.4579 9.437C46.2972 10.4325 47.0639 11.489 47.7477 12.6064L48.2347 13.4292C48.8667 14.5466 49.4159 15.7046 49.8718 16.9135L49.8614 16.9236ZM25.0052 34.1317C27.2035 34.1317 29.3118 33.2755 30.8663 31.7514C32.4208 30.2274 33.294 28.1604 33.294 26.0051C33.294 23.8498 32.4208 21.7827 30.8663 20.2587C29.3118 18.7347 27.2035 17.8785 25.0052 17.8785C22.8068 17.8785 20.6985 18.7347 19.1441 20.2587C17.5896 21.7827 16.7163 23.8498 16.7163 26.0051C16.7163 28.1604 17.5896 30.2274 19.1441 31.7514C20.6985 33.2755 22.8068 34.1317 25.0052 34.1317Z" fill="#737373"/>
</svg>
