<svg width="53" height="60" viewBox="0 0 53 60" fill="none" xmlns="http://www.w3.org/2000/svg">
<path d="M29.2606 1.84668C27.8186 0.401367 25.4768 0.401367 24.0349 1.84668L9.26916 16.6467C7.82719 18.092 7.82719 20.4392 9.26916 21.8845C10.7111 23.3298 13.0529 23.3298 14.4948 21.8845L22.962 13.3976V37.7598C22.962 39.8064 24.6117 41.4598 26.6535 41.4598C28.6953 41.4598 30.3449 39.8064 30.3449 37.7598V13.3976L38.8121 21.8845C40.2541 23.3298 42.5958 23.3298 44.0378 21.8845C45.4798 20.4392 45.4798 18.092 44.0378 16.6467L29.2721 1.84668H29.2606ZM8.19633 41.4598C8.19633 39.4132 6.54673 37.7598 4.50491 37.7598C2.46308 37.7598 0.813477 39.4132 0.813477 41.4598V48.8598C0.813477 54.9879 5.77383 59.9598 11.8878 59.9598H41.4192C47.5331 59.9598 52.4935 54.9879 52.4935 48.8598V41.4598C52.4935 39.4132 50.8439 37.7598 48.8021 37.7598C46.7602 37.7598 45.1106 39.4132 45.1106 41.4598V48.8598C45.1106 50.9064 43.461 52.5598 41.4192 52.5598H11.8878C9.84594 52.5598 8.19633 50.9064 8.19633 48.8598V41.4598Z" fill="white"/>
</svg>
