<svg width="75" height="48" viewBox="0 0 75 48" fill="none" xmlns="http://www.w3.org/2000/svg">
<path d="M0.933594 8.39339C0.933594 4.07282 4.60082 0.560059 9.11137 0.560059H41.8225C46.333 0.560059 50.0003 4.07282 50.0003 8.39339V39.7267C50.0003 44.0473 46.333 47.5601 41.8225 47.5601H9.11137C4.60082 47.5601 0.933594 44.0473 0.933594 39.7267V8.39339ZM72.3742 4.94183C73.703 5.62725 74.5336 6.94912 74.5336 8.39339V39.7267C74.5336 41.171 73.703 42.4929 72.3742 43.1783C71.0453 43.8637 69.4353 43.7903 68.1703 42.9825L55.9036 35.1491L54.0892 33.9864V31.8934V16.2267V14.1338L55.9036 12.971L68.1703 5.13766C69.4225 4.34209 71.0325 4.25641 72.3742 4.94183Z" fill="white"/>
</svg>
